# xmcd
#
# Track frame offsets: 
#        150
#        17810
#        36552
#        51554
#        67686
#        90674
#        125158
#        148470
#
# Disc length: 2390 seconds
#
# Revision: 1
# Processed by: cddbd v1.5.2PL0 Copyright (c) Steve Scherf et al.
# Submitted via: ExactAudioCopy v1.0b2
#
DISCID=7b095408
DTITLE=Maynard Ferguson - Octet
DYEAR=1955
DGENRE=Jazz
TTITLE0=Finger Snappin'
TTITLE1=My New Flame
TTITLE2=Autumn Leaves
TTITLE3=Inter-Space
TTITLE4=20, Rue De Madrid
TTITLE5=Super-G
TTITLE6=What Was Her Name?
TTITLE7=Yeah
EXTD=YEAR: 1955
EXTT0=
EXTT1=
EXTT2=
EXTT3=
EXTT4=
EXTT5=
EXTT6=
EXTT7=
PLAYORDER=
